<?xml version="1.0" standalone="no"?><!DOCTYPE svg PUBLIC "-//W3C//DTD SVG 1.1//EN" "http://www.w3.org/Graphics/SVG/1.1/DTD/svg11.dtd"><svg t="1537165015120" class="icon" style="" viewBox="0 0 1024 1024" version="1.1" xmlns="http://www.w3.org/2000/svg" p-id="1774" xmlns:xlink="http://www.w3.org/1999/xlink" width="128" height="128"><defs><style type="text/css"></style></defs><path d="M861.9 612.1L829.1 593 962 515.6v-28.7l-881.8 153v28.7L389.4 849l311.1-181.1 32.8 19.1-214.9 96.4v28.8l49.2 28.7 381.9-220.4v-28.8z" fill="#488477" p-id="1775"></path><path d="M861.9 583.3l-32.8-19.1L962 486.9 653.7 305.8 80.2 639.9l309.2 180.3 311.1-181.1 32.8 19.2-214.9 125.1 49.2 28.7 381.9-220.4-51-29.7z" fill="#A4CBC0" p-id="1776"></path><path d="M309.9 460.5v-25l-230.7 3.2v25l112 65.6z" fill="#488477" p-id="1777"></path><path d="M309.9 435.5l-111.7-66-119 69.2 112 65.7z" fill="#A4CBC0" p-id="1778"></path><path d="M410.6 740.3L233 637.6l-0.3-68.2-4.8-2.6v-56.2l182.7 104.9z" fill="#FFDE83" p-id="1779"></path><path d="M232.7 569.4v68.7l177.9 102.2v-68.6z" fill="#FAEDDB" p-id="1780"></path><path d="M253.3 581.2V649l8.7 5.1v-67.8zM282.4 598v67.7l8.8 5V603zM311.5 614.7v67.6l8.8 5.1v-67.7zM340.7 631.5V699l8.7 5v-67.5zM369.8 648.2v67.4l8.7 5v-67.4z" fill="#A0B1CD" p-id="1781"></path><path d="M410.6 723.5l-178-101.8-4.7 2.8 182.7 105.4z" fill="#7BB7B6" p-id="1782"></path><path d="M227.9 635.3l182.7 105v-10.8l-182.7-105z" fill="#6D9CA6" p-id="1783"></path><path d="M411 615.5L227.9 510.6l52.4-149.2 181 106.1z" fill="#FAD256" p-id="1784"></path><path d="M789.7 251.7L768 263.4l-12.8 30.5-27.1-10.5 10 51.5-263.8 67.9 178.1 107.4L778.9 357l47.4-84z" fill="#FDD75F" p-id="1785"></path><path d="M768 263.4l-12.8 30.5 52.4 29.8-2.1-39.1z" fill="#CEC23C" p-id="1786"></path><path d="M789.7 251.7L768 263.4l43.8 25 15.4-15.4z" fill="#FFDE83" p-id="1787"></path><path d="M728.1 283.4l10 51.5 52.4 29.6-24.9-59.9z" fill="#CEC23C" p-id="1788"></path><path d="M653.7 599.2l-243.1 141V615.5l50.7-148 192.4-111.8v152l121.8-151.6-9.9-51.5 27.1 10.6 12.8-30.6 21.7-11.6-17.5 89.9z" fill="#435387" p-id="1789"></path><path d="M487.7 695.5l-77.1 44.7v-68.1l77.3-43.7z" fill="#EAD4BB" p-id="1790"></path><path d="M489.2 510v31.2l2.5 1.1 1.7-25.3 29.1-16.4 5.7-9.7-3.2-1.6z" fill="#FFFFFF" p-id="1791"></path><path d="M522.5 500.6v20.9l2.5 1.6v-23.6z" fill="#91B7F9" p-id="1792"></path><path d="M491.7 511.6v30.7l4.2-2.4V517l29.1-16.4-0.1 22.5 3.1-1.8 0.2-30.3z" fill="#C2D2F9" p-id="1793"></path><path d="M447.6 651.2v67.4l8.8-5.1v-67.3z" fill="#828EBC" p-id="1794"></path><path d="M491 682.7l-5.3-2.9-75.1 43.7v6.4z" fill="#7CA2B5" p-id="1795"></path><path d="M485.7 679.8l5.3 2.9 0.3-56.2-5.6 3.2z" fill="#6D9CA6" p-id="1796"></path><path d="M653.2 356.2L472.7 249.6 280.3 361.4l181 106.1z" fill="#CEC23C" p-id="1797"></path><path d="M524.2 357.8L468.6 325l-59.3 34.5 55.8 32.6z" fill="#6C9AA7" p-id="1798"></path><path d="M398.9 359.5v12.6l65.9 38.6 69.8-40.5v-12.3l-70.3 31.2-65.4-29.6z" fill="#FDFFE6" p-id="1799"></path><path d="M464.8 410.7l69.8-40.5v-12.3l-70.3 31.2z" fill="#FAFCBB" p-id="1800"></path><path d="M420.2 354.5v15.6l48-28v-17.8z" fill="#FFFFD7" p-id="1801"></path><path d="M516.3 354.5v15.6l-48.1-28v-17.8z" fill="#FDFFE6" p-id="1802"></path><path d="M468.9 318.9l-70 40.7 65.9 38.6 69.8-40.5-65.7-38.8z m-46.5 40.4l45.8-26.6 42.9 25.4-45.7 26.5-43-25.3z" fill="#FFEEC5" p-id="1803"></path><path d="M474.1 264.2l-114.9 86.2-70.5-41.2 141-72.4z" fill="#C9DED6" p-id="1804"></path><path d="M288.7 342.3v-33.1l70.5 41.2v32.4z" fill="#A4CBC0" p-id="1805"></path><path d="M464.7 293.6l1.2 86.1-21.2-90.5z" fill="#488477" p-id="1806"></path><path d="M464.7 293.6l-105.5 89.2v-32.4l114.9-86.2-8.2 115.5z" fill="#56A5A0" p-id="1807"></path><path d="M478.4 305.6l66.9 50.2 41.1-24-82.2-42.2z" fill="#CEE7D7" p-id="1808"></path><path d="M586.4 351.1v-19.3l-41.1 24v18.9z" fill="#56A5A0" p-id="1809"></path><path d="M483.9 322.7l-0.7 50.2 12.3-52.7z" fill="#488477" p-id="1810"></path><path d="M483.9 322.7l61.4 52v-18.9l-66.9-50.2 4.8 67.3z" fill="#A4CBC0" p-id="1811"></path><path d="M491 682.7l-80.4 46.7v10.8l80.4-46.7z" fill="#6D83A5" p-id="1812"></path><path d="M572.9 230.7l-71.2 29.4-24.3-13.1 51.2-43.7z" fill="#CEE7D7" p-id="1813"></path><path d="M477.4 247l24.3 13.1v15l-24.3-13.8z" fill="#A4CBC0" p-id="1814"></path><path d="M572.9 230.7l-71.2 29.4v15l71.2-30.6z" fill="#56A5A0" p-id="1815"></path><path d="M380.8 195.1l42.1 16.7 24.3-13.1-30.8-24.8z" fill="#CEE7D7" p-id="1816"></path><path d="M447.2 198.7l-24.3 13.1v15l24.3-13.8z" fill="#56A5A0" p-id="1817"></path><path d="M381 195.1l41.9 16.7v15L381 208.9z" fill="#A4CBC0" p-id="1818"></path></svg>