<?xml version="1.0" standalone="no"?><!DOCTYPE svg PUBLIC "-//W3C//DTD SVG 1.1//EN" "http://www.w3.org/Graphics/SVG/1.1/DTD/svg11.dtd"><svg t="1537165050972" class="icon" style="" viewBox="0 0 1024 1024" version="1.1" xmlns="http://www.w3.org/2000/svg" p-id="2573" xmlns:xlink="http://www.w3.org/1999/xlink" width="128" height="128"><defs><style type="text/css"></style></defs><path d="M514 478.8l-0.3 484.9-193.1-112 94.5-430.5z" fill="#488477" p-id="2574"></path><path d="M690.6 856.6l-69-438.6L514 478.8l-1.9 484.9z" fill="#435387" p-id="2575"></path><path d="M415.1 421.2l-24.2-138.6 122 71.1 1.2 125.1z" fill="#56A5A0" p-id="2576"></path><path d="M522.1 207.4L479 231.6l-42.2 4.9-6.5 23.2-39.4 22.9 39 23.1 2.9 22.4 40 2.1 40.1 23.5 39.7-22.4 49.5-4.2 4.3-26.2 39.5-22.3-46.2-26.6-1.2-17.7-33.5-2.2z" fill="#FFDE52" p-id="2577"></path><path d="M472.8 330.2l-40-2.1 15.9 149.7 9.7-32.5z" fill="#435387" p-id="2578"></path><path d="M621.6 418l24.3-139.4-39.4 22.2-4.7 26-49 4.4-39.9 22.5 1.2 125.1z" fill="#795275" p-id="2579"></path><path d="M552.8 331.2l49-4.4-15.7 158.5-15.2-39.3z" fill="#488477" p-id="2580"></path><path d="M513.5 250v66.4l-60.3-35.3-0.1-66.2z" fill="#7CA5D2" p-id="2581"></path><path d="M514.5 179.2l-61.4 35.7 60.4 35.1 62.4-35.7z" fill="#FFDE52" p-id="2582"></path><path d="M575.9 280.2v-65.9L513.5 250v66.4z" fill="#435387" p-id="2583"></path><path d="M514.1 201.6v27.3l-24.8-14.5v-27.2z" fill="#7CA5D2" p-id="2584"></path><path d="M514.5 172.6l-25.2 14.6 24.8 14.4 25.6-14.6z" fill="#FFDE52" p-id="2585"></path><path d="M539.7 214v-27l-25.6 14.6v27.3z" fill="#435387" p-id="2586"></path><path d="M514.3 192.1l-10.4-6L514.4 51z" fill="#6AA875" p-id="2587"></path><path d="M523.8 186.5L514.4 51l-0.1 141.1z" fill="#795275" p-id="2588"></path></svg>